# xmcd
#
# Track frame offsets:
# 150
# 19032
# 44100
# 67527
# 91165
# 115028
# 133560
# 152073
# 172409
# 190715
# 211297
# 232811
#
# Disc length: 3344 seconds
#
#
# Revision: 0
# Processed by: cddbd v1.5.1PL0 Copyright (c) Steve Scherf et al.
# Submitted via: FreeRIP 2.80 
#
DISCID=960d0e0c
DTITLE=Spin - Satu Cinta - Disc 1
DYEAR=1900
DGENRE=Blues
TTITLE0=Hadirlah Mustika
TTITLE1=Utusan Rindu
TTITLE2=Nadia
TTITLE3=Memori Berkasih (Duet bersama Siti Nordiana)
TTITLE4=Dekat Disayang Jauh Dikenang
TTITLE5=Realiti
TTITLE6=Syarina
TTITLE7=Lestari (Duet bersama Siti Nordiana)
TTITLE8=Mabuk Cinta
TTITLE9=Buah Hati Diambil Orang
TTITLE10=Dimana Janjimu Dulu
TTITLE11=Merindu Kembali
EXTD=
EXTT0=
EXTT1=
EXTT2=
EXTT3=
EXTT4=
EXTT5=
EXTT6=
EXTT7=
EXTT8=
EXTT9=
EXTT10=
EXTT11=
PLAYORDER=
